<svg width="221" height="153" viewBox="0 0 221 153" fill="none" xmlns="http://www.w3.org/2000/svg">
<path d="M62.238 93.7255V61.5223H70.9333V93.7255H62.238ZM99.0818 68.5302V93.7255H90.3865V68.5302H76.7224V61.5223H112.769V68.5302H99.0818ZM149.355 93.7255V80.2958H127.23V93.7255H118.535V61.5223H127.23V73.2411H149.355V61.5223H158.051V93.7255H149.355Z" fill="#FEFEFE"/>
<path d="M14.9504 101.776C18.461 114.878 31.9453 124.359 51.6724 128.748C71.3195 133.119 96.7359 132.315 123.231 125.216C149.726 118.117 172.139 106.105 186.968 92.4955C201.858 78.8309 208.795 63.8784 205.285 50.7765C201.774 37.6746 188.29 28.1941 168.563 23.8051C148.916 19.4338 123.499 20.2378 97.0043 27.3371C70.5093 34.4364 48.0961 46.4483 33.2669 60.0574C18.3773 73.7221 11.4397 88.6745 14.9504 101.776Z" stroke="#FEFEFE" stroke-width="3"/>
</svg>
