<svg width="112" height="67" viewBox="0 0 112 67" fill="none" xmlns="http://www.w3.org/2000/svg">
<path d="M35.1416 51.5399C32.5116 51.7422 24.6285 53.761 23.7245 49.6027C23.3522 47.8899 23.9501 45.7766 24.8661 43.6731M24.8661 43.6731C26.0053 41.0573 27.6366 38.4568 28.5057 36.6606C33.2283 26.9004 39.6468 14.1827 37.9443 2.90399C36.8067 -4.63301 31.7936 12.5589 31.4733 13.744C28.8082 23.6047 26.3567 33.5543 24.2386 43.5524M24.8661 43.6731C24.6569 43.6331 24.4477 43.5928 24.2386 43.5524M24.8661 43.6731C27.0755 44.0957 29.2914 44.4923 31.5145 44.8628C42.8957 46.7596 54.2447 49.4364 65.7245 50.6331C78.9151 52.0082 92.3755 51.7142 105.622 51.5399C116.938 51.391 104.624 46.9314 100.429 45.9344C89.3782 43.308 78.1355 41.3925 67.0435 38.9275M24.2386 43.5524C23.9367 44.9774 23.6416 46.4035 23.3536 47.8304C22.6016 51.5559 21.9563 63.8293 17.7068 65.8422C14.9915 67.1284 11.9705 59.6507 11.2358 58.1346C8.3178 52.1133 4.47479 46.6734 1.50862 40.7411C0.431487 38.5868 1.10417 38.0791 3.15729 38.639C10.1341 40.5418 17.1531 42.1807 24.2386 43.5524ZM32.9159 38.9275C35.8864 38.4379 41.3787 36.5157 44.0444 38.9275C45.5253 40.2674 46.7694 41.4594 48.6195 42.3073C53.8688 44.7132 59.1802 45.5302 64.8177 44.1209M38.8511 30.7666C42.053 30.4542 45.2733 30.0247 48.4959 30.0247" stroke="white" stroke-width="1.82373" stroke-linecap="round" stroke-linejoin="round"/>
</svg>
